<svg width="24" height="24" viewBox="0 0 24 24" fill="none" xmlns="http://www.w3.org/2000/svg">
<path d="M3.67843 14.7136C3.30949 14.7136 3.00355 14.4728 3.00355 14.1824V10.1448C2.95856 8.22518 3.86739 6.41181 5.55909 5.05179C7.25079 3.69884 9.51838 2.95508 11.9569 2.95508C16.942 2.95508 21.0003 6.14972 21.0003 10.074V14.1115C21.0003 14.402 20.6944 14.6428 20.3254 14.6428C19.9565 14.6428 19.6506 14.402 19.6506 14.1115V10.074C19.6506 6.73765 16.2042 4.0176 11.9569 4.0176C9.87831 4.0176 7.95266 4.64803 6.52192 5.79555C5.08217 6.95016 4.31731 8.48727 4.35331 10.1306V14.1753C4.35331 14.4728 4.05636 14.7136 3.67843 14.7136Z" fill="#2F2F2F"/>
<path d="M5.747 10.1909H5.65643C4.19333 10.1909 3.00195 11.3306 3.00195 12.7302V13.9832C3.00195 15.3828 4.19333 16.5225 5.65643 16.5225H5.747C7.2101 16.5225 8.40147 15.3828 8.40147 13.9832V12.7302C8.40147 11.3306 7.2101 10.1909 5.747 10.1909Z" fill="#2F2F2F"/>
<path d="M3.38157 13.7881C3.32533 14.9682 3.48701 18.9246 9.83771 19.8108" stroke="#2F2F2F" stroke-width="0.75"/>
<path d="M18.3447 10.1909H18.2541C16.791 10.1909 15.5996 11.3306 15.5996 12.7302V13.9832C15.5996 15.3828 16.791 16.5225 18.2541 16.5225H18.3447C19.8078 16.5225 20.9991 15.3828 20.9991 13.9832V12.7302C20.9991 11.3306 19.8078 10.1909 18.3447 10.1909Z" fill="#2F2F2F"/>
<ellipse cx="1.35002" cy="0.904409" rx="1.35002" ry="0.904409" transform="matrix(0.98939 0.145282 -0.143844 0.9896 8.63086 18.8179)" fill="#2F2F2F"/>
</svg>
