<svg width="107" height="30" viewBox="0 0 107 30" fill="none" xmlns="http://www.w3.org/2000/svg">
<g clip-path="url(#paint0_diamond_9541_6703_clip_path)" data-figma-skip-parse="true"><g transform="matrix(0.0670332 0.0279496 -0.0512957 0.0365246 -1.08377e-06 2.55916)"><rect x="0" y="0" width="1022.19" height="559.671" fill="url(#paint0_diamond_9541_6703)" opacity="1" shape-rendering="crispEdges"/><rect x="0" y="0" width="1022.19" height="559.671" transform="scale(1 -1)" fill="url(#paint0_diamond_9541_6703)" opacity="1" shape-rendering="crispEdges"/><rect x="0" y="0" width="1022.19" height="559.671" transform="scale(-1 1)" fill="url(#paint0_diamond_9541_6703)" opacity="1" shape-rendering="crispEdges"/><rect x="0" y="0" width="1022.19" height="559.671" transform="scale(-1)" fill="url(#paint0_diamond_9541_6703)" opacity="1" shape-rendering="crispEdges"/></g></g><path d="M6.35742 6.95947L7.70068 7.84131L9.42334 6.95947L11.4229 8.30273L9.10547 9.50244L7.76221 8.62061L6.06006 9.50244L4.0708 8.15918L6.35742 6.95947ZM5.29102 19.5C4.12207 19.5 3.22656 19.3223 2.60449 18.9668C1.87305 18.5498 1.50732 17.8936 1.50732 16.998V13.4297C1.50732 13.0127 1.50049 12.6265 1.48682 12.271L4.69629 11.707V17.1313C4.69629 18.314 4.93555 18.9292 5.41406 18.9771H11.228V10.8047L14.4272 10.2202V19.5H5.29102ZM33.6533 19.5H14.2324V18.9771H19.0415L19.0312 12.7427C19.0312 12.6538 19.0312 12.5752 19.0312 12.5068L19.021 12.3223L22.21 11.748V18.9771H24.7324V11.5635L27.9214 10.9995V18.9771H30.4644V10.8047L33.6533 10.2202V19.5ZM33.4688 18.9771H37.396C37.9839 18.936 38.2778 18.2354 38.2778 16.875V10.8047L41.4668 10.2202V16.875C41.4668 18.625 40.2295 19.5 37.7549 19.5H33.4688V18.9771ZM36.4116 20.0845L37.7549 20.9868L39.4775 20.0845L41.4668 21.4277L39.1597 22.6274L37.8164 21.7661L36.1143 22.6274L34.1147 21.2842L36.4116 20.0845ZM52.3359 19.5H43.5996L43.1587 18.9771H48.9111V16.1982C48.9111 12.6709 48.665 10.9072 48.1729 10.9072C48.1045 10.9072 48.0396 10.9141 47.978 10.9277C47.896 10.9346 47.814 10.9551 47.7319 10.9893C47.5063 11.085 47.2705 11.2559 47.0244 11.502C46.7236 11.8232 46.4058 12.2744 46.0708 12.8555C45.6743 13.5322 45.2642 14.3901 44.8403 15.4292L44.1636 12.5889C44.5122 12.582 44.8164 12.4795 45.0762 12.2812C45.1719 12.2129 45.2744 12.1206 45.3838 12.0044L46.1016 11.2559C46.293 11.0918 46.4878 10.9517 46.686 10.8354C47.1919 10.5483 47.814 10.4048 48.5522 10.4048C49.3452 10.4048 50.0117 10.6851 50.5518 11.2456C51.0303 11.7378 51.4131 12.4419 51.7002 13.3579C51.9395 14.1304 52.1104 15.0566 52.2129 16.1367C52.2607 16.5947 52.2915 17.0801 52.3052 17.5928C52.3257 18.0234 52.3359 18.4849 52.3359 18.9771V19.5ZM63.1538 18.8232C63.5024 18.126 63.6768 17.2954 63.6768 16.3315C63.6768 15.231 63.5435 14.3115 63.2769 13.5732C62.9761 12.7734 62.5728 12.3633 62.0669 12.3428C61.7524 12.3428 61.4585 12.6743 61.1851 13.3374C61.0757 13.604 60.9595 13.9458 60.8364 14.3628L60.5083 15.5317C60.3989 15.9692 60.293 16.3384 60.1904 16.6392C60.0264 17.0903 59.8179 17.5483 59.5649 18.0132L60.0571 18.5669C60.2759 18.7993 60.4775 19.001 60.6621 19.1719C61.1748 19.623 61.5986 19.8486 61.9336 19.8486C62.4053 19.8486 62.812 19.5068 63.1538 18.8232ZM52.1514 19.5V18.9771H54.9199C55.6719 18.9771 56.2803 18.5977 56.7451 17.8389C56.9297 17.5381 57.1006 17.1621 57.2578 16.7109C57.374 16.3965 57.5005 15.9829 57.6372 15.4702C57.7739 14.9849 57.9277 14.5713 58.0986 14.2295C58.3174 13.7715 58.5874 13.3818 58.9087 13.0605C59.2915 12.6846 59.7495 12.3975 60.2827 12.1992C60.8911 11.9736 61.5952 11.8608 62.395 11.8608C63.7622 11.8608 64.8901 12.3496 65.7788 13.3271C66.5649 14.2021 66.958 15.1694 66.958 16.229C66.958 17.3159 66.5376 18.2559 65.6968 19.0488C64.7466 19.9512 63.4648 20.4023 61.8516 20.4023C60.9697 20.4023 60.2144 20.269 59.5854 20.0024C59.1069 19.7974 58.6729 19.5034 58.2832 19.1206C57.7773 19.3735 57.0493 19.5 56.0991 19.5H52.1514Z" data-figma-gradient-fill="{&#34;type&#34;:&#34;GRADIENT_DIAMOND&#34;,&#34;stops&#34;:[{&#34;color&#34;:{&#34;r&#34;:0.26274511218070984,&#34;g&#34;:0.30196079611778259,&#34;b&#34;:0.39215686917304993,&#34;a&#34;:1.0},&#34;position&#34;:0.0},{&#34;color&#34;:{&#34;r&#34;:0.078431375324726105,&#34;g&#34;:0.12941177189350128,&#34;b&#34;:0.23921568691730499,&#34;a&#34;:1.0},&#34;position&#34;:1.0}],&#34;stopsVar&#34;:[],&#34;transform&#34;:{&#34;m00&#34;:134.06634521484375,&#34;m01&#34;:-102.59138488769531,&#34;m02&#34;:-15.737485885620117,&#34;m10&#34;:55.899284362792969,&#34;m11&#34;:73.049148559570312,&#34;m12&#34;:-61.915054321289062},&#34;opacity&#34;:1.0,&#34;blendMode&#34;:&#34;NORMAL&#34;,&#34;visible&#34;:true}"/>
<path d="M62.8146 6.98134C62.9654 6.75515 63.0471 6.51011 63.0596 6.24622C63.0722 5.98233 63.0282 5.74357 62.9277 5.52994C62.8272 5.31632 62.6889 5.17809 62.513 5.11525C62.3873 5.06499 62.2554 5.07127 62.1172 5.13411C61.9915 5.18437 61.891 5.27233 61.8156 5.398C61.7402 5.51109 61.7088 5.63676 61.7213 5.77498C61.759 6.01374 61.9098 6.20852 62.1737 6.35931C62.4376 6.51011 62.7832 6.56666 63.2104 6.52896L63.2481 7.50913C62.5821 7.58452 62.0229 7.50284 61.5705 7.26409C61.3408 7.1328 61.0253 6.75707 61.0253 6.75707C61.0253 6.75707 60.8209 6.34751 60.7789 6.09542C60.716 5.68074 60.7914 5.29747 61.005 4.94561C61.2312 4.58119 61.5265 4.3173 61.891 4.15394C62.268 3.97801 62.6261 3.95288 62.9654 4.07854C63.3424 4.21677 63.6188 4.48694 63.7948 4.88906C63.866 5.05191 63.9187 5.22197 63.9528 5.39924C64.003 5.65971 64.0132 5.93576 63.9832 6.22737C63.9455 6.71745 63.8136 7.15727 63.5874 7.54683C63.2733 8.07461 62.7895 8.47673 62.136 8.75319C61.4951 9.01708 60.7535 9.11249 60.1003 9.18672C59.447 9.26095 62.1751 7.9726 62.8146 6.98134Z" fill="#14213D"/>
<g clip-path="url(#paint1_diamond_9541_6703_clip_path)" data-figma-skip-parse="true"><g transform="matrix(0.0320158 0.0252448 -0.0244994 0.0329899 75 3.76312)"><rect x="0" y="0" width="1033.9" height="569.396" fill="url(#paint1_diamond_9541_6703)" opacity="1" shape-rendering="crispEdges"/><rect x="0" y="0" width="1033.9" height="569.396" transform="scale(1 -1)" fill="url(#paint1_diamond_9541_6703)" opacity="1" shape-rendering="crispEdges"/><rect x="0" y="0" width="1033.9" height="569.396" transform="scale(-1 1)" fill="url(#paint1_diamond_9541_6703)" opacity="1" shape-rendering="crispEdges"/><rect x="0" y="0" width="1033.9" height="569.396" transform="scale(-1)" fill="url(#paint1_diamond_9541_6703)" opacity="1" shape-rendering="crispEdges"/></g></g><path d="M82.1249 27.5235C82.2025 27.4789 82.2503 27.3962 82.2503 27.3068V6.14868C82.2503 5.95643 82.4582 5.83612 82.6249 5.93195L90.9021 10.6912C90.9794 10.7357 91.0746 10.7356 91.1518 10.691L102.318 4.24306C102.395 4.1984 102.443 4.11587 102.443 4.02656V1.43315C102.443 1.24067 102.235 1.12039 102.068 1.21667L91.1518 7.52298C91.0746 7.56759 90.9794 7.56769 90.9021 7.52324C87.245 5.42063 83.5883 3.31802 79.9316 1.21541C79.7649 1.11957 79.557 1.23988 79.557 1.43213V28.5679C79.557 28.7601 79.7649 28.8804 79.9316 28.7846L82.1249 27.5235ZM97.8861 17.5212C97.8861 17.4319 97.8384 17.3494 97.7611 17.3047L95.0394 15.7332C94.9623 15.6887 94.8673 15.6885 94.7901 15.7328L92.538 17.0232C92.3707 17.119 92.3703 17.3601 92.5372 17.4565L95.0678 18.9186C95.1451 18.9633 95.1927 19.0458 95.1927 19.1351V24.6743C95.1927 24.7637 95.2406 24.8464 95.3181 24.891L97.5118 26.1521C97.6785 26.248 97.8864 26.1276 97.8864 25.9354L97.8861 17.5212ZM107 25.9409C107 26.1331 106.792 26.2534 106.625 26.1576L104.432 24.8964C104.354 24.8518 104.306 24.7692 104.306 24.6797C104.306 18.4221 104.306 12.1645 104.306 5.90648C104.306 5.81719 104.354 5.73468 104.431 5.69001L106.625 4.42272C106.792 4.32644 107 4.44671 107 4.63919C107 11.7396 107 18.84 107 25.9409ZM75 25.9283C75 26.1205 75.2079 26.2408 75.3746 26.145L77.5683 24.8839C77.6459 24.8393 77.6937 24.7566 77.6937 24.6671C77.6937 18.4095 77.6937 12.1519 77.6937 5.89392C77.6937 5.80463 77.6461 5.72212 77.5688 5.67745L75.3751 4.41016C75.2084 4.31388 75 4.43415 75 4.62663C75 11.7271 75 18.8275 75 25.9283ZM102.443 28.5558C102.443 28.748 102.235 28.8683 102.068 28.7725L99.8747 27.5114C99.7971 27.4668 99.7493 27.3841 99.7493 27.2946C99.7493 22.1898 99.7493 17.0851 99.7493 11.9803C99.7493 11.7879 99.5411 11.6676 99.3744 11.7637L86.9324 18.9379C86.855 18.9826 86.8073 19.0651 86.8073 19.1545V24.6864C86.8073 24.7759 86.7594 24.8585 86.6819 24.9031L84.4881 26.1643C84.3215 26.2601 84.1135 26.1398 84.1135 25.9476V20.5591V17.5358C84.1135 17.4463 84.1614 17.3636 84.2389 17.319L87.895 15.2169C88.0622 15.1208 88.0622 14.8796 87.895 14.7835L84.2389 12.6814C84.1614 12.6368 84.1135 12.5541 84.1135 12.4646V9.87346C84.1135 9.6812 84.3215 9.5609 84.4882 9.65673L90.9017 13.3446C90.979 13.3891 91.0742 13.389 91.1514 13.3444L102.068 7.03805C102.235 6.94177 102.443 7.06204 102.443 7.25452C102.443 14.3545 102.443 21.455 102.443 28.5558Z" data-figma-gradient-fill="{&#34;type&#34;:&#34;GRADIENT_DIAMOND&#34;,&#34;stops&#34;:[{&#34;color&#34;:{&#34;r&#34;:0.26274511218070984,&#34;g&#34;:0.30196079611778259,&#34;b&#34;:0.39215686917304993,&#34;a&#34;:1.0},&#34;position&#34;:0.0},{&#34;color&#34;:{&#34;r&#34;:0.078431375324726105,&#34;g&#34;:0.12941177189350128,&#34;b&#34;:0.23921568691730499,&#34;a&#34;:1.0},&#34;position&#34;:1.0}],&#34;stopsVar&#34;:[],&#34;transform&#34;:{&#34;m00&#34;:64.031692504882812,&#34;m01&#34;:-48.998870849609375,&#34;m02&#34;:67.483589172363281,&#34;m10&#34;:50.489677429199219,&#34;m11&#34;:65.979881286621094,&#34;m12&#34;:-54.471660614013672},&#34;opacity&#34;:1.0,&#34;blendMode&#34;:&#34;NORMAL&#34;,&#34;visible&#34;:true}"/>
<defs>
<clipPath id="paint0_diamond_9541_6703_clip_path"><path d="M6.35742 6.95947L7.70068 7.84131L9.42334 6.95947L11.4229 8.30273L9.10547 9.50244L7.76221 8.62061L6.06006 9.50244L4.0708 8.15918L6.35742 6.95947ZM5.29102 19.5C4.12207 19.5 3.22656 19.3223 2.60449 18.9668C1.87305 18.5498 1.50732 17.8936 1.50732 16.998V13.4297C1.50732 13.0127 1.50049 12.6265 1.48682 12.271L4.69629 11.707V17.1313C4.69629 18.314 4.93555 18.9292 5.41406 18.9771H11.228V10.8047L14.4272 10.2202V19.5H5.29102ZM33.6533 19.5H14.2324V18.9771H19.0415L19.0312 12.7427C19.0312 12.6538 19.0312 12.5752 19.0312 12.5068L19.021 12.3223L22.21 11.748V18.9771H24.7324V11.5635L27.9214 10.9995V18.9771H30.4644V10.8047L33.6533 10.2202V19.5ZM33.4688 18.9771H37.396C37.9839 18.936 38.2778 18.2354 38.2778 16.875V10.8047L41.4668 10.2202V16.875C41.4668 18.625 40.2295 19.5 37.7549 19.5H33.4688V18.9771ZM36.4116 20.0845L37.7549 20.9868L39.4775 20.0845L41.4668 21.4277L39.1597 22.6274L37.8164 21.7661L36.1143 22.6274L34.1147 21.2842L36.4116 20.0845ZM52.3359 19.5H43.5996L43.1587 18.9771H48.9111V16.1982C48.9111 12.6709 48.665 10.9072 48.1729 10.9072C48.1045 10.9072 48.0396 10.9141 47.978 10.9277C47.896 10.9346 47.814 10.9551 47.7319 10.9893C47.5063 11.085 47.2705 11.2559 47.0244 11.502C46.7236 11.8232 46.4058 12.2744 46.0708 12.8555C45.6743 13.5322 45.2642 14.3901 44.8403 15.4292L44.1636 12.5889C44.5122 12.582 44.8164 12.4795 45.0762 12.2812C45.1719 12.2129 45.2744 12.1206 45.3838 12.0044L46.1016 11.2559C46.293 11.0918 46.4878 10.9517 46.686 10.8354C47.1919 10.5483 47.814 10.4048 48.5522 10.4048C49.3452 10.4048 50.0117 10.6851 50.5518 11.2456C51.0303 11.7378 51.4131 12.4419 51.7002 13.3579C51.9395 14.1304 52.1104 15.0566 52.2129 16.1367C52.2607 16.5947 52.2915 17.0801 52.3052 17.5928C52.3257 18.0234 52.3359 18.4849 52.3359 18.9771V19.5ZM63.1538 18.8232C63.5024 18.126 63.6768 17.2954 63.6768 16.3315C63.6768 15.231 63.5435 14.3115 63.2769 13.5732C62.9761 12.7734 62.5728 12.3633 62.0669 12.3428C61.7524 12.3428 61.4585 12.6743 61.1851 13.3374C61.0757 13.604 60.9595 13.9458 60.8364 14.3628L60.5083 15.5317C60.3989 15.9692 60.293 16.3384 60.1904 16.6392C60.0264 17.0903 59.8179 17.5483 59.5649 18.0132L60.0571 18.5669C60.2759 18.7993 60.4775 19.001 60.6621 19.1719C61.1748 19.623 61.5986 19.8486 61.9336 19.8486C62.4053 19.8486 62.812 19.5068 63.1538 18.8232ZM52.1514 19.5V18.9771H54.9199C55.6719 18.9771 56.2803 18.5977 56.7451 17.8389C56.9297 17.5381 57.1006 17.1621 57.2578 16.7109C57.374 16.3965 57.5005 15.9829 57.6372 15.4702C57.7739 14.9849 57.9277 14.5713 58.0986 14.2295C58.3174 13.7715 58.5874 13.3818 58.9087 13.0605C59.2915 12.6846 59.7495 12.3975 60.2827 12.1992C60.8911 11.9736 61.5952 11.8608 62.395 11.8608C63.7622 11.8608 64.8901 12.3496 65.7788 13.3271C66.5649 14.2021 66.958 15.1694 66.958 16.229C66.958 17.3159 66.5376 18.2559 65.6968 19.0488C64.7466 19.9512 63.4648 20.4023 61.8516 20.4023C60.9697 20.4023 60.2144 20.269 59.5854 20.0024C59.1069 19.7974 58.6729 19.5034 58.2832 19.1206C57.7773 19.3735 57.0493 19.5 56.0991 19.5H52.1514Z"/></clipPath><clipPath id="paint1_diamond_9541_6703_clip_path"><path d="M82.1249 27.5235C82.2025 27.4789 82.2503 27.3962 82.2503 27.3068V6.14868C82.2503 5.95643 82.4582 5.83612 82.6249 5.93195L90.9021 10.6912C90.9794 10.7357 91.0746 10.7356 91.1518 10.691L102.318 4.24306C102.395 4.1984 102.443 4.11587 102.443 4.02656V1.43315C102.443 1.24067 102.235 1.12039 102.068 1.21667L91.1518 7.52298C91.0746 7.56759 90.9794 7.56769 90.9021 7.52324C87.245 5.42063 83.5883 3.31802 79.9316 1.21541C79.7649 1.11957 79.557 1.23988 79.557 1.43213V28.5679C79.557 28.7601 79.7649 28.8804 79.9316 28.7846L82.1249 27.5235ZM97.8861 17.5212C97.8861 17.4319 97.8384 17.3494 97.7611 17.3047L95.0394 15.7332C94.9623 15.6887 94.8673 15.6885 94.7901 15.7328L92.538 17.0232C92.3707 17.119 92.3703 17.3601 92.5372 17.4565L95.0678 18.9186C95.1451 18.9633 95.1927 19.0458 95.1927 19.1351V24.6743C95.1927 24.7637 95.2406 24.8464 95.3181 24.891L97.5118 26.1521C97.6785 26.248 97.8864 26.1276 97.8864 25.9354L97.8861 17.5212ZM107 25.9409C107 26.1331 106.792 26.2534 106.625 26.1576L104.432 24.8964C104.354 24.8518 104.306 24.7692 104.306 24.6797C104.306 18.4221 104.306 12.1645 104.306 5.90648C104.306 5.81719 104.354 5.73468 104.431 5.69001L106.625 4.42272C106.792 4.32644 107 4.44671 107 4.63919C107 11.7396 107 18.84 107 25.9409ZM75 25.9283C75 26.1205 75.2079 26.2408 75.3746 26.145L77.5683 24.8839C77.6459 24.8393 77.6937 24.7566 77.6937 24.6671C77.6937 18.4095 77.6937 12.1519 77.6937 5.89392C77.6937 5.80463 77.6461 5.72212 77.5688 5.67745L75.3751 4.41016C75.2084 4.31388 75 4.43415 75 4.62663C75 11.7271 75 18.8275 75 25.9283ZM102.443 28.5558C102.443 28.748 102.235 28.8683 102.068 28.7725L99.8747 27.5114C99.7971 27.4668 99.7493 27.3841 99.7493 27.2946C99.7493 22.1898 99.7493 17.0851 99.7493 11.9803C99.7493 11.7879 99.5411 11.6676 99.3744 11.7637L86.9324 18.9379C86.855 18.9826 86.8073 19.0651 86.8073 19.1545V24.6864C86.8073 24.7759 86.7594 24.8585 86.6819 24.9031L84.4881 26.1643C84.3215 26.2601 84.1135 26.1398 84.1135 25.9476V20.5591V17.5358C84.1135 17.4463 84.1614 17.3636 84.2389 17.319L87.895 15.2169C88.0622 15.1208 88.0622 14.8796 87.895 14.7835L84.2389 12.6814C84.1614 12.6368 84.1135 12.5541 84.1135 12.4646V9.87346C84.1135 9.6812 84.3215 9.5609 84.4882 9.65673L90.9017 13.3446C90.979 13.3891 91.0742 13.389 91.1514 13.3444L102.068 7.03805C102.235 6.94177 102.443 7.06204 102.443 7.25452C102.443 14.3545 102.443 21.455 102.443 28.5558Z"/></clipPath><linearGradient id="paint0_diamond_9541_6703" x1="0" y1="0" x2="500" y2="500" gradientUnits="userSpaceOnUse">
<stop stop-color="#434D64"/>
<stop offset="1" stop-color="#14213D"/>
</linearGradient>
<linearGradient id="paint1_diamond_9541_6703" x1="0" y1="0" x2="500" y2="500" gradientUnits="userSpaceOnUse">
<stop stop-color="#434D64"/>
<stop offset="1" stop-color="#14213D"/>
</linearGradient>
</defs>
</svg>
