<svg width="32" height="32" viewBox="0 0 32 32" fill="none" xmlns="http://www.w3.org/2000/svg">
<path d="M25.3333 20C22.3867 20 20 22.3867 20 25.3333C20 26.3333 20.28 27.28 20.7734 28.08C21.6934 29.6267 23.3867 30.6667 25.3333 30.6667C27.28 30.6667 28.9733 29.6267 29.8933 28.08C30.3866 27.28 30.6667 26.3333 30.6667 25.3333C30.6667 22.3867 28.28 20 25.3333 20ZM28.0933 24.76L25.2533 27.3867C25.0667 27.56 24.8133 27.6533 24.5733 27.6533C24.32 27.6533 24.0667 27.56 23.8667 27.36L22.5466 26.04C22.16 25.6533 22.16 25.0133 22.5466 24.6267C22.9333 24.24 23.5733 24.24 23.96 24.6267L24.6 25.2667L26.7333 23.2933C27.1333 22.92 27.7733 22.9467 28.1466 23.3467C28.52 23.7467 28.4933 24.3733 28.0933 24.76Z" fill="#14213D"/>
<path d="M29.3332 10.0532V11.9999H2.6665V10.0532C2.6665 6.99987 5.14654 4.5332 8.19987 4.5332H23.7998C26.8531 4.5332 29.3332 6.99987 29.3332 10.0532Z" fill="#14213D"/>
<path opacity="0.4" d="M2.6665 12V21.9467C2.6665 25 5.13319 27.4667 8.18652 27.4667H16.5332C17.3065 27.4667 17.9732 26.8133 17.9065 26.04C17.7198 24 18.3732 21.7867 20.1865 20.0267C20.9332 19.2933 21.8532 18.7333 22.8532 18.4133C24.5199 17.88 26.1331 17.9467 27.5598 18.4267C28.4265 18.72 29.3332 18.0933 29.3332 17.1733V12H2.6665ZM10.6665 23H7.99984C7.45317 23 6.99984 22.5467 6.99984 22C6.99984 21.4533 7.45317 21 7.99984 21H10.6665C11.2132 21 11.6665 21.4533 11.6665 22C11.6665 22.5467 11.2132 23 10.6665 23Z" fill="#14213D"/>
<path d="M11.6667 22C11.6667 22.5467 11.2133 23 10.6667 23H8C7.45333 23 7 22.5467 7 22C7 21.4533 7.45333 21 8 21H10.6667C11.2133 21 11.6667 21.4533 11.6667 22Z" fill="#14213D"/>
</svg>
