<svg width="32" height="32" viewBox="0 0 32 32" fill="none" xmlns="http://www.w3.org/2000/svg">
<path d="M21.6668 30.0002C22.9555 30.0002 24.0002 28.9555 24.0002 27.6668C24.0002 26.3782 22.9555 25.3335 21.6668 25.3335C20.3782 25.3335 19.3335 26.3782 19.3335 27.6668C19.3335 28.9555 20.3782 30.0002 21.6668 30.0002Z" fill="#14213D"/>
<path d="M10.9998 30.0002C12.2885 30.0002 13.3332 28.9555 13.3332 27.6668C13.3332 26.3782 12.2885 25.3335 10.9998 25.3335C9.71117 25.3335 8.6665 26.3782 8.6665 27.6668C8.6665 28.9555 9.71117 30.0002 10.9998 30.0002Z" fill="#14213D"/>
<path opacity="0.4" d="M6.45317 5.25317L6.1865 8.51984C6.13317 9.1465 6.62651 9.6665 7.25317 9.6665H27.6665C28.2265 9.6665 28.6932 9.23983 28.7332 8.67983C28.9065 6.31983 27.1065 4.39984 24.7465 4.39984H8.3865C8.25316 3.81317 7.98649 3.25317 7.57316 2.7865C6.91983 2.07983 5.98651 1.6665 5.02651 1.6665H2.6665C2.11984 1.6665 1.6665 2.11984 1.6665 2.6665C1.6665 3.21317 2.11984 3.6665 2.6665 3.6665H4.98651C5.39984 3.6665 5.78651 3.83985 6.06651 4.13318C6.34651 4.43985 6.47983 4.83984 6.45317 5.25317Z" fill="#14213D"/>
<path d="M27.3464 11.6665H6.89308C6.33308 11.6665 5.87975 12.0932 5.82641 12.6398L5.34641 18.4398C5.15975 20.7065 6.94642 22.6665 9.22642 22.6665H24.0531C26.0531 22.6665 27.8131 21.0265 27.9598 19.0265L28.3998 12.7998C28.4531 12.1865 27.9731 11.6665 27.3464 11.6665Z" fill="#14213D"/>
</svg>
