<svg width="32" height="32" viewBox="0 0 32 32" fill="none" xmlns="http://www.w3.org/2000/svg">
<path d="M16.0002 15.9998C19.6821 15.9998 22.6668 13.0151 22.6668 9.33317C22.6668 5.65127 19.6821 2.6665 16.0002 2.6665C12.3183 2.6665 9.3335 5.65127 9.3335 9.33317C9.3335 13.0151 12.3183 15.9998 16.0002 15.9998Z" fill="#14213D"/>
<path opacity="0.4" d="M15.9999 19.3335C9.31992 19.3335 3.87988 23.8135 3.87988 29.3335C3.87988 29.7068 4.17322 30.0002 4.54655 30.0002H27.4533C27.8266 30.0002 28.12 29.7068 28.12 29.3335C28.12 23.8135 22.6799 19.3335 15.9999 19.3335Z" fill="#14213D"/>
<path d="M28.573 19.6534C27.373 18.4534 26.4264 18.8401 25.6131 19.6534L20.893 24.3735C20.7064 24.5602 20.5331 24.9068 20.4931 25.1601L20.2397 26.9601C20.1464 27.6134 20.5997 28.0668 21.2531 27.9734L23.053 27.7201C23.3064 27.6801 23.6664 27.5068 23.8397 27.3201L28.5597 22.6001C29.3864 21.8001 29.773 20.8534 28.573 19.6534Z" fill="#14213D"/>
</svg>
